<?xml version="1.0" encoding="UTF-8" standalone="no"?>
<!-- Created with Inkscape (http://www.inkscape.org/) -->

<svg
   xmlns:dc="http://purl.org/dc/elements/1.1/"
   xmlns:cc="http://creativecommons.org/ns#"
   xmlns:rdf="http://www.w3.org/1999/02/22-rdf-syntax-ns#"
   xmlns:svg="http://www.w3.org/2000/svg"
   xmlns="http://www.w3.org/2000/svg"
   xmlns:sodipodi="http://sodipodi.sourceforge.net/DTD/sodipodi-0.dtd"
   xmlns:inkscape="http://www.inkscape.org/namespaces/inkscape"
   width="1920"
   height="1080"
   viewBox="0 0 507.99999 285.75001"
   version="1.1"
   id="svg1258"
   inkscape:version="0.92.3 (2405546, 2018-03-11)"
   sodipodi:docname="workspace_stairs.svg">
  <sodipodi:namedview
     id="base"
     pagecolor="#4d4d4d"
     bordercolor="#666666"
     borderopacity="1.0"
     inkscape:pageopacity="0"
     inkscape:pageshadow="2"
     inkscape:zoom="1.8899122"
     inkscape:cx="825.48353"
     inkscape:cy="518.62568"
     inkscape:document-units="px"
     inkscape:current-layer="layer1"
     showgrid="true"
     units="px"
     inkscape:window-width="2560"
     inkscape:window-height="1385"
     inkscape:window-x="2560"
     inkscape:window-y="27"
     inkscape:window-maximized="1"
     inkscape:snap-global="false">
    <inkscape:grid
       dotted="false"
       empspacing="10"
       spacingy="2.6458334"
       spacingx="2.6458334"
       empopacity="0.25098039"
       empcolor="#f7f0f4"
       opacity="0.1254902"
       color="#f7eeff"
       id="grid1395"
       type="xygrid" />
  </sodipodi:namedview>
  <defs
     id="defs1252" />
  <metadata
     id="metadata1255">
    <rdf:RDF>
      <cc:Work
         rdf:about="">
        <dc:format>image/svg+xml</dc:format>
        <dc:type
           rdf:resource="http://purl.org/dc/dcmitype/StillImage" />
        <dc:title></dc:title>
      </cc:Work>
    </rdf:RDF>
  </metadata>
  <g
     transform="translate(0,-11.249983)"
     id="layer1"
     inkscape:groupmode="layer"
     inkscape:label="Layer 1">
    <path
       inkscape:connector-curvature="0"
       id="path1399-5-5"
       d="m 186.8065,190.58957 c -0.50408,0 -0.91271,-0.40868 -0.91271,-0.91284 v -3.03544 c 0,-0.50416 0.40863,-0.91284 0.91271,-0.91284 h 5.01986 c 0.5041,0 0.91272,-0.4087 0.91272,-0.91285 v -5.0206 c 0,-0.50415 0.40861,-0.91284 0.91271,-0.91284 h 5.01983 c 0.5041,0 0.91272,-0.4087 0.91272,-0.91284 v -5.02059 c 0,-0.50417 0.40862,-0.91286 0.9127,-0.91286 h 5.01984 c 0.5041,0 0.91272,-0.4087 0.91272,-0.91284 v -5.02062 c 0,-0.50416 0.40862,-0.91284 0.91271,-0.91284 h 3.099 c 0.50409,0 0.9127,0.40868 0.9127,0.91284 v 23.57432 c 0,0.50416 -0.40861,0.91284 -0.9127,0.91284 z"
       style="fill:#d4d4d4;fill-opacity:1;stroke:#d4d4d4;stroke-width:1.0583334;stroke-linecap:round;stroke-linejoin:miter;stroke-miterlimit:4;stroke-dasharray:none;stroke-opacity:1"
       sodipodi:nodetypes="ccccccccccccccccccccc" />
    <g
       id="g1612"
       transform="matrix(2.5007168,0,0,2.5245673,-372.53033,-282.87234)"
       style="stroke-width:0.39799193">
      <path
         sodipodi:nodetypes="ccccccccccccccccccccc"
         style="opacity:1;vector-effect:none;fill:#9f9f9f;fill-opacity:1;stroke:#9f9f9f;stroke-width:0.42120814;stroke-linecap:round;stroke-linejoin:miter;stroke-miterlimit:4;stroke-dasharray:none;stroke-dashoffset:0;stroke-opacity:1"
         d="m 251.5564,184.79796 c 0.14484,0 0.26224,-0.11739 0.26224,-0.26222 v -0.87193 c 0,-0.14482 -0.1174,-0.26221 -0.26224,-0.26221 h -1.4423 c -0.14483,0 -0.26224,-0.1174 -0.26224,-0.26222 v -1.44217 c 0,-0.14482 -0.1174,-0.26222 -0.26224,-0.26222 h -1.44229 c -0.14483,0 -0.26224,-0.1174 -0.26224,-0.26221 v -1.44217 c 0,-0.14483 -0.1174,-0.26222 -0.26224,-0.26222 h -1.44229 c -0.14483,0 -0.26224,-0.1174 -0.26224,-0.26222 v -1.44218 c 0,-0.14482 -0.1174,-0.26221 -0.26224,-0.26221 h -0.8904 c -0.14483,0 -0.26224,0.11739 -0.26224,0.26221 v 6.77175 c 0,0.14483 0.11741,0.26222 0.26224,0.26222 z"
         id="path1399-5-5-1"
         inkscape:connector-curvature="0" />
      <path
         sodipodi:nodetypes="ccccccccccccccccccccc"
         style="fill:#d4d4d4;fill-opacity:1;stroke:#d4d4d4;stroke-width:0.42120814;stroke-linecap:round;stroke-linejoin:miter;stroke-miterlimit:4;stroke-dasharray:none;stroke-opacity:1"
         d="m 247.05545,187.56291 c -0.19484,0 -0.35278,-0.15794 -0.35278,-0.35278 v -1.17308 c 0,-0.19484 0.15794,-0.35278 0.35278,-0.35278 h 1.94028 c 0.19484,0 0.35278,-0.15795 0.35278,-0.35278 v -1.94027 c 0,-0.19484 0.15794,-0.35278 0.35278,-0.35278 h 1.94027 c 0.19484,0 0.35278,-0.15795 0.35278,-0.35278 v -1.94027 c 0,-0.19484 0.15794,-0.35278 0.35278,-0.35278 h 1.94027 c 0.19484,0 0.35278,-0.15795 0.35278,-0.35278 v -1.94028 c 0,-0.19484 0.15794,-0.35278 0.35278,-0.35278 h 1.19783 c 0.19484,0 0.35278,0.15794 0.35278,0.35278 v 9.11058 c 0,0.19484 -0.15794,0.35278 -0.35278,0.35278 z"
         id="path1399-5-5-9"
         inkscape:connector-curvature="0" />
    </g>
    <path
       inkscape:connector-curvature="0"
       id="path1399-5-5-7"
       d="m 210.47412,137.92283 c 0.50408,0 0.91271,-0.40868 0.91271,-0.91284 v -3.03544 c 0,-0.50416 -0.40863,-0.91284 -0.91271,-0.91284 h -5.01986 c -0.5041,0 -0.91272,-0.4087 -0.91272,-0.91285 v -5.0206 c 0,-0.50415 -0.40861,-0.91284 -0.91271,-0.91284 H 198.609 c -0.5041,0 -0.91272,-0.4087 -0.91272,-0.91284 v -5.02059 c 0,-0.50417 -0.40862,-0.91286 -0.9127,-0.91286 h -5.01984 c -0.5041,0 -0.91272,-0.4087 -0.91272,-0.91284 v -5.02062 c 0,-0.50416 -0.40862,-0.91284 -0.91271,-0.91284 h -3.099 c -0.50409,0 -0.9127,0.40868 -0.9127,0.91284 v 23.57432 c 0,0.50416 0.40861,0.91284 0.9127,0.91284 z"
       style="fill:#d4d4d4;fill-opacity:1;stroke:#d4d4d4;stroke-width:1.0583334;stroke-linecap:round;stroke-linejoin:miter;stroke-miterlimit:4;stroke-dasharray:none;stroke-opacity:1"
       sodipodi:nodetypes="ccccccccccccccccccccc" />
  </g>
</svg>
